<svg xmlns="http://www.w3.org/2000/svg" width="1920" height="103" fill="none"><path fill="#74BCF0" d="M0 0h1920v103H0z"/><path fill="url(#a)" fill-rule="evenodd" d="M468.461 103c.25-.462.489-.92.717-1.375-11.849-4.936-24.95-16.297 17.439-22.254 20.129-2.828 50.197.737 86.878 5.086 59.876 7.1 137.371 16.289 218.009 3.165 104.03-16.931 125.695-62.92 123.525-83.798-2.888-1.116-5.704-2.41-8.143-3.824H0v73c0 9.517 4.431 17.999 11.343 23.495 15.217 1.976 26.626 3.564 36.558 4.946 3.94.548 7.648 1.064 11.269 1.559H468.46Z" clip-rule="evenodd"/><path fill="#91ECD6" fill-opacity=".333" fill-rule="evenodd" d="M468.461 103c.25-.462.489-.92.717-1.375-11.849-4.936-24.95-16.297 17.439-22.254 20.129-2.828 50.197.737 86.878 5.086 59.876 7.1 137.371 16.289 218.009 3.165 104.03-16.931 125.695-62.92 123.525-83.798-2.888-1.116-5.704-2.41-8.143-3.824H0v73c0 9.517 4.431 17.999 11.343 23.495 15.217 1.976 26.626 3.564 36.558 4.946 3.94.548 7.648 1.064 11.269 1.559H468.46Z" clip-rule="evenodd"/><defs><linearGradient id="a" x1="854.608" x2="-155.857" y1="-65.237" y2="522.924" gradientUnits="userSpaceOnUse"><stop stop-color="#74BCF0"/><stop offset=".113" stop-color="#5ED3E3" stop-opacity=".887"/><stop offset=".443" stop-color="#85D5DA" stop-opacity=".574"/><stop offset=".698" stop-color="#91ECD6" stop-opacity=".333"/><stop offset=".919" stop-color="#81FFE1" stop-opacity=".193"/><stop offset="1" stop-color="#B9FFDD" stop-opacity="0"/></linearGradient></defs></svg>